:SAMPLES-PER-SECOND 30
:FULLY-SPECIFIED
:DEGREES
436
root  1.87859 39.494 5.64978 115.576 87.8939 116.372
RightUpLeg  3.47665 -9.38475 -3.16954
RightLeg  12.384 2.48547 1.14187
RightFoot  -13.6682 -0.153883 -3.02353
RightToes  5.82063e-011 0 -3.6325e-017
Spine  5.64281 -0.104882 6.9144
Spine1  6.02459 0.514777 -1.45324
HEad  -8.25219 1.82556 -5.06202
LeftShoulder1  -0.398502 4.54233 -32.2181
LeftArm  0.0859628 10.1119 -37.8993
LeftForeArm  22.5987 -14.2043 -6.92217
LeftHand  -0.0372587 7.30536 0.116441
RightShoulder  -0.615297 -5.35696 26.4813
RightArm  12.9567 11.6643 46.0283
RightForeArm  1.94649 24.5112 5.14502
RightHand  -0.605814 6.57593 -6.21039
LeftUpLeg  -16.4448 4.08286 3.02939
LeftLeg  7.02289 -5.60009 -0.780043
LeftFoot  -1.6342 0.782671 -9.09136
LeftToes  -1.20963e-009 8.6283e-011 2.04439e-011
437
root  2.65936 39.4585 5.61062 122.283 87.9152 122.981
RightUpLeg  5.38633 -9.1642 -3.1813
RightLeg  10.9907 2.1737 0.948429
RightFoot  -14.1898 -0.163443 -2.7197
RightToes  5.82063e-011 0 -3.6325e-017
Spine  5.11374 0.0601618 6.16274
Spine1  6.60762 0.594081 -1.46782
HEad  -7.9359 1.64148 -5.0457
LeftShoulder1  -0.449089 4.65705 -32.8028
LeftArm  -1.61352 10.9742 -37.0686
LeftForeArm  23.8695 -12.3894 -7.40804
LeftHand  -0.0331893 7.41011 0.284112
RightShoulder  -0.623095 -5.37652 26.5571
RightArm  14.1039 11.5141 46.0565
RightForeArm  1.27562 23.7471 5.01372
RightHand  -0.608169 6.07754 -6.47499
LeftUpLeg  -15.8137 4.34051 2.64106
LeftLeg  -0.311178 -1.18912 -0.761204
LeftFoot  -0.52054 0.919514 -9.63614
LeftToes  -1.20963e-009 8.6283e-011 2.04439e-011
438
root  3.51857 39.3111 5.49331 130.589 88.0256 131.391
RightUpLeg  7.14499 -9.16828 -3.27974
RightLeg  10.7242 2.15642 0.906754
RightFoot  -15.4199 -0.186369 -2.30724
RightToes  5.82063e-011 0 -3.6325e-017
Spine  4.90153 0.15762 6.07476
Spine1  6.82945 0.793292 -2.01095
HEad  -7.79295 1.18398 -4.69288
LeftShoulder1  -0.431089 4.61755 -32.5679
LeftArm  -2.57434 12.3255 -36.6519
LeftForeArm  25.6464 -11.2826 -7.56779
LeftHand  -0.0629785 6.89498 -1.72378
RightShoulder  -0.64667 -5.43118 26.8472
RightArm  15.4644 10.8362 46.1193
RightForeArm  0.884782 22.2987 4.82074
RightHand  -0.564987 6.16466 -5.99697
LeftUpLeg  -15.6592 4.35399 2.26405
LeftLeg  -3.75813 3.45028 -1.3778
LeftFoot  0.735857 1.10006 -10.4289
LeftToes  -1.20963e-009 8.6283e-011 2.04439e-011
439
root  4.42818 39.0804 5.31968 150.231 87.8183 151.359
RightUpLeg  9.03633 -9.34346 -3.40419
RightLeg  11.0791 1.91026 0.938216
RightFoot  -17.0715 -0.199251 -1.68908
RightToes  5.82063e-011 0 -3.6325e-017
Spine  5.07941 0.0396434 6.30793
Spine1  6.73093 0.851712 -2.65544
HEad  -7.42683 0.706795 -3.97834
LeftShoulder1  -0.44966 4.66888 -32.4569
LeftArm  -3.47198 13.6485 -36.482
LeftForeArm  27.0151 -10.456 -7.5797
LeftHand  -0.0879431 7.76005 -2.10539
RightShoulder  -0.698194 -5.55382 27.3908
RightArm  16.1352 9.73845 46.1556
RightForeArm  1.41169 20.1224 4.81912
RightHand  -0.508046 5.52979 -5.71104
LeftUpLeg  -16.3348 4.14715 1.68564
LeftLeg  -1.95942 5.9199 -1.58103
LeftFoot  0.768195 0.992566 -9.34839
LeftToes  -1.20963e-009 8.6283e-011 2.04439e-011
440
root  5.41471 38.8128 5.14714 154.858 87.5302 156.338
RightUpLeg  10.902 -9.4284 -3.80914
RightLeg  11.7441 1.87121 0.668158
RightFoot  -18.9944 -0.182239 -0.799209
RightToes  5.82063e-011 0 -3.6325e-017
Spine  4.89384 0.229868 5.45342
Spine1  7.08254 1.04199 -2.5028
HEad  -6.96644 0.23569 -3.9404
LeftShoulder1  -0.462006 4.69647 -32.5691
LeftArm  -4.16568 14.5896 -36.119
LeftForeArm  27.9835 -9.55718 -7.61726
LeftHand  -0.0850083 7.40082 -2.3778
RightShoulder  -0.701001 -5.54839 27.6171
RightArm  16.0402 8.27993 46.2334
RightForeArm  2.62995 17.159 5.2907
RightHand  -0.45546 5.48959 -5.16362
LeftUpLeg  -17.4296 3.82886 0.609719
LeftLeg  2.85712 6.09245 -1.07629
LeftFoot  1.85278 0.727379 -6.54612
LeftToes  -1.20963e-009 8.6283e-011 2.04439e-011
441
root  6.46486 38.617 4.93736 138.927 87.596 140.827
RightUpLeg  13.2461 -9.29321 -4.92531
RightLeg  11.5408 2.49147 0.246403
RightFoot  -20.3708 -0.114368 0.296671
RightToes  5.82063e-011 0 -3.6325e-017
Spine  4.61874 0.635652 4.24648
Spine1  7.59247 1.61095 -3.08606
HEad  -6.16484 0.00971156 -3.42685
LeftShoulder1  -0.586706 4.99956 -33.0842
LeftArm  -4.04145 15.6941 -35.2075
LeftForeArm  27.9461 -9.55669 -7.60781
LeftHand  -0.0807199 7.59074 -1.91347
RightShoulder  -0.677933 -5.47687 27.6647
RightArm  14.4098 6.52684 46.5952
RightForeArm  6.235 13.4945 6.03424
RightHand  -0.370428 4.98263 -4.45003
LeftUpLeg  -18.3279 3.84741 -0.955203
LeftLeg  7.64535 3.63171 -0.331775
LeftFoot  5.2519 0.0630686 -0.630704
LeftToes  -1.20963e-009 8.6283e-011 2.04439e-011
442
root  7.60676 38.3899 4.67889 118.684 87.2729 121.319
RightUpLeg  15.6266 -8.94824 -6.54555
RightLeg  12.3208 3.1255 -0.18809
RightFoot  -21.6459 0.0197624 1.83451
RightToes  5.82063e-011 0 -3.6325e-017
Spine  4.98425 0.977177 3.31072
Spine1  7.24524 2.2669 -4.29112
HEad  -5.25942 -0.405784 -2.83738
LeftShoulder1  -0.644505 5.14711 -33.0587
LeftArm  -3.63298 16.8931 -34.2542
LeftForeArm  27.5549 -9.66316 -7.65716
LeftHand  -0.0985559 7.81192 -2.50665
RightShoulder  -0.770854 -5.68244 28.7486
RightArm  13.0265 4.1878 46.3202
RightForeArm  10.1959 10.5036 6.4913
RightHand  -0.321387 4.2702 -4.1243
LeftUpLeg  -18.5517 3.54823 -2.46836
LeftLeg  12.4503 3.61592 0.766946
LeftFoot  7.45297 -0.287773 1.529
LeftToes  -1.20963e-009 8.6283e-011 2.04439e-011
443
root  8.74969 38.1743 4.4105 115.477 86.2547 118.799
RightUpLeg  17.2025 -7.83991 -7.89437
RightLeg  14.6645 2.23215 -0.513358
RightFoot  -22.4763 0.277722 4.40202
RightToes  5.82063e-011 0 -3.6325e-017
Spine  5.12127 1.11277 1.95858
Spine1  7.27312 2.51105 -4.69429
HEad  -4.89879 -0.929797 -2.88041
LeftShoulder1  -0.704981 5.28801 -33.3571
LeftArm  -3.56522 17.1598 -33.4469
LeftForeArm  27.2205 -9.60025 -7.65718
LeftHand  -0.0996433 7.768 -2.59439
RightShoulder  -0.86052 -5.88806 29.4836
RightArm  11.356 1.42199 46.2652
RightForeArm  13.7501 8.27391 6.30152
RightHand  -0.218368 3.56669 -3.09291
LeftUpLeg  -18.9639 3.25284 -4.09355
LeftLeg  18.2866 3.1418 1.51982
LeftFoot  4.40107 -0.45127 3.0601
LeftToes  -1.20963e-009 8.6283e-011 2.04439e-011
